# xmcd
#
# Track frame offsets:
#	150
#	16615
#	30745
#	46063
#	55165
#	74338
#	86315
#	99713
#	114710
#	126118
#	138555
#	148928
#	163695
#	175245
#	187108
#	201508
#	214258
#	227620
#	249570
#	260508
#	275615
#
# Disc length: 3867
#
# Revision: 2
# Processed by: cddbd v1.5.1PL0 Copyright (c) Steve Scherf et al.
# Submitted via: dBpowerAMP V4.0
# Normalized: r0:DSETVAR1,TDELIM( - ),TSWAP
#
DISCID=3b0f1915
DTITLE=Various Artist - Country Soft-n-Mellow cd-4
DYEAR=1989
DGENRE=Country
TTITLE0=Dan Seals - Bop
TTITLE1=Jerry Reed - Bad, Bad Leroy Brown
TTITLE2=Eddie Rabbitt - The Wanderer
TTITLE3=Floyd Cramer - Misty Blue
TTITLE4=Floyd Cramer With Chorus - By The Time i Get to Phoenix
TTITLE5=Chet Atkins - Detroit City
TTITLE6=Danny Davis And The Nashville Brass - Medley: i Can't Stop Loving You And Elvira
TTITLE7=Jerry Reed And Chet Atkins - Limehouse Blues
TTITLE8=Chet Atkins - Cold, Cold Heart
TTITLE9=Ray Price - He's Got The Whole World in His Hands
TTITLE10=Dolly Parton - I Believe
TTITLE11=Eddy Arnold - Crying in The Chapel
TTITLE12=Dottie West - Put Your Hand in The Hand
TTITLE13=Jim Reeves - May The Good Lord Bless And Keep You
TTITLE14=Eddy Arnold - My Sweet Lord
TTITLE15=Charley Pride - The Church in The Wildwood
TTITLE16=Jim Reeves - It is no Secret
TTITLE17=Ray Price - How Great Thou Art
TTITLE18=Cristy Lane - Amazing Grace
TTITLE19=Barbara Mandrell With Male Vocal - What a Friend we Have in Jesus
TTITLE20=Charley Pride - Whispering Hope
EXTD=
EXTT0=
EXTT1=
EXTT2=
EXTT3=
EXTT4=
EXTT5=
EXTT6=
EXTT7=
EXTT8=
EXTT9=
EXTT10=
EXTT11=
EXTT12=
EXTT13=
EXTT14=
EXTT15=
EXTT16=
EXTT17=
EXTT18=
EXTT19=
EXTT20=
PLAYORDER=
